<?xml version="1.0" standalone="no"?>
<!DOCTYPE svg PUBLIC "-//W3C//DTD SVG 20010904//EN"
 "http://www.w3.org/TR/2001/REC-SVG-20010904/DTD/svg10.dtd">
<svg version="1.0" xmlns="http://www.w3.org/2000/svg"
 width="800.000000pt" height="800.000000pt" viewBox="0 0 800.000000 800.000000"
 preserveAspectRatio="xMidYMid meet">

<g transform="translate(0.000000,800.000000) scale(0.100000,-0.100000)"
fill="#000000" stroke="none">
<path d="M6443 6294 l-158 -206 -3 196 -2 196 -245 0 -245 0 0 -245 0 -245
121 0 121 0 -7 -77 c-19 -200 -83 -320 -213 -398 l-49 -30 59 -88 59 -88 68
36 c137 72 235 185 283 328 l27 82 158 3 158 2 139 220 c77 121 143 220 146
220 4 0 74 -99 156 -220 l148 -220 269 0 c214 0 267 3 260 13 -5 6 -141 173
-302 370 l-292 357 -249 0 -249 0 -158 -206z"/>
<path d="M5130 5792 l0 -689 -98 96 c-62 61 -127 114 -179 145 -459 272 -1127
122 -1442 -324 -247 -350 -342 -909 -240 -1415 132 -654 624 -1078 1219 -1051
307 14 531 128 704 360 l36 49 0 -177 0 -176 220 0 220 0 0 1935 0 1935 -220
0 -220 0 0 -688z m-624 -717 c147 -28 299 -121 400 -243 145 -176 218 -420
231 -767 11 -297 -27 -528 -119 -715 -45 -92 -62 -116 -147 -201 -80 -80 -110
-103 -181 -137 -281 -135 -579 -78 -800 154 -79 83 -98 109 -143 200 -90 179
-121 348 -121 654 0 238 8 321 50 479 110 421 441 651 830 576z"/>
<path d="M6607 3808 c-3 -1455 -5 -1620 -20 -1686 -22 -101 -52 -150 -111
-187 -47 -28 -55 -30 -150 -29 -60 0 -124 7 -158 16 l-57 16 -15 -72 c-9 -39
-29 -129 -44 -201 -21 -93 -26 -132 -18 -137 7 -3 52 -15 101 -24 125 -25 384
-26 475 -1 262 71 386 235 446 588 17 96 18 226 21 1717 l4 1612 -235 0 -235
0 -4 -1612z"/>
<path d="M1072 5103 c-38 -54 -227 -324 -421 -601 l-351 -502 406 -588 c223
-323 412 -593 418 -600 9 -9 59 -12 203 -10 l190 3 -338 598 -339 597 326 568
c179 312 335 582 346 600 l20 32 -196 0 -195 0 -69 -97z"/>
<path d="M2102 5103 c-38 -54 -227 -324 -420 -600 l-352 -503 411 -587 c226
-324 416 -594 423 -601 9 -9 61 -12 213 -10 l200 3 -353 597 -354 598 341 577
c188 318 349 588 357 601 l14 22 -205 0 -206 0 -69 -97z"/>
</g>
</svg>
